    <svg width="375" height="89" viewBox="0 0 375 89" fill="none" xmlns="http://www.w3.org/2000/svg">
<g clip-path="url(#clip0_188_21204)">
<path d="M24.3751 30.9876C20.1867 33.6037 16.1796 36.5069 12.3817 39.6713C8.58341 42.8357 5.01618 46.2857 1.67413 49.9538C-1.66567 53.625 -4.76989 57.5282 -7.61895 61.6317L-8.67197 63.1829C-9.01915 63.7028 -9.38412 64.2093 -9.70789 64.7465L-11.7001 67.9332L-13.5796 71.1982C-14.1965 72.2925 -14.7631 73.4197 -15.3569 74.5291C-19.9546 83.4968 -23.505 93.1123 -25.8095 103.137L-26.2519 105.013L-26.633 106.908L-27.0101 108.804L-27.1982 109.752L-27.3541 110.709L-27.9734 114.538L-28.4636 118.396C-29.0441 123.556 -29.3674 128.765 -29.4259 134" stroke="#FF7F41" stroke-width="19.6651" stroke-linecap="round"/>
<path d="M95.1506 18.8385C84.1312 18.2443 73.1889 19.299 62.7957 21.9528C52.4004 24.6031 42.5631 28.8527 33.6723 34.4688C24.7777 40.0817 16.8286 47.0555 10.1057 55.0768C3.37937 63.0965 -2.12043 72.1631 -6.20864 81.9206" stroke="#FDDA24" stroke-width="16.3487" stroke-linecap="round"/>
<path d="M122 13.6462L112.246 12.4112L107.368 11.7938L104.93 11.4852C104.522 11.4351 104.12 11.3792 103.707 11.3339L102.46 11.2036C95.8144 10.4677 89.1478 10.2853 82.5577 10.6695C81.7304 10.6935 80.9141 10.7916 80.0925 10.8531L77.631 11.0627L75.1865 11.3639C74.3733 11.473 73.5524 11.5455 72.7474 11.691L70.3235 12.085C69.9202 12.1531 69.5143 12.2116 69.1128 12.2874L67.9127 12.5296L65.5126 13.0148C64.7136 13.1793 63.9281 13.39 63.1353 13.5757C56.8107 15.1139 50.6459 17.1694 44.7783 19.8079" stroke="#59CBE8" stroke-width="8.31985" stroke-linecap="round"/>
<path d="M406.958 -45.0014C408.161 -34.3383 407.886 -23.6641 405.693 -13.5556C404.609 -8.50209 403.082 -3.58821 401.123 1.11555C399.132 5.8029 396.743 10.2947 393.951 14.5107C388.366 22.9465 381.251 30.2988 373.137 36.4018C371.111 37.9137 369.046 39.325 366.857 40.592C364.674 41.8577 362.413 43.0074 360.086 44.0414C357.759 45.077 355.351 45.9655 352.904 46.7636C351.683 47.1702 350.436 47.5182 349.193 47.8749C347.936 48.1991 346.683 48.5307 345.408 48.8076" stroke="#FDDA24" stroke-width="19.6651" stroke-linecap="round"/>
<path d="M406.871 0.536269C405.706 3.54175 404.357 6.4611 402.89 9.31142C401.405 12.1527 399.751 14.8929 397.983 17.5498C396.219 20.2114 394.275 22.7409 392.24 25.1871C390.195 27.6256 388.044 29.9734 385.76 32.1859C383.482 34.4036 381.099 36.5126 378.62 38.5069L377.69 39.2539L376.743 39.9809C376.112 40.4646 375.482 40.9491 374.819 41.4128C374.163 41.8814 373.513 42.3584 372.834 42.7938C372.16 43.2364 371.496 43.6942 370.8 44.1051C365.312 47.5124 359.329 50.1443 353.113 52.0729C346.894 54.008 340.447 55.2487 333.936 55.9797C327.423 56.7124 320.843 56.9464 314.265 56.8474C301.099 56.6289 287.953 55.1072 274.914 53.1196" stroke="#FF7F41" stroke-width="11.6778" stroke-linecap="round"/>
<path d="M311.815 51.9359C297.109 51.514 282.291 49.5081 267.504 47.0522C252.707 44.5932 237.915 41.6047 222.996 39.1187" stroke="#59CBE8" stroke-width="12.1016" stroke-linecap="round"/>
</g>
<defs>
<clipPath id="clip0_188_21204">
<rect width="375" height="89" fill="white"/>
</clipPath>
</defs>
</svg>