<svg width="375" height="343" viewBox="0 0 375 343" fill="none" xmlns="http://www.w3.org/2000/svg">
<g clip-path="url(#clip0_3260_71684)">
<path d="M41.0909 61.9381C38.5109 61.9381 35.9209 60.9781 33.9209 59.0481C18.4409 44.1581 1.11088 31.8981 -17.5791 22.5881C-36.1091 13.3481 -55.8091 7.1281 -76.1291 4.0781C-96.2191 1.0581 -116.629 1.1781 -136.809 4.4381C-156.849 7.6681 -176.379 13.9581 -194.869 23.1281C-199.989 25.6681 -206.199 23.5781 -208.739 18.4581C-211.279 13.3381 -209.189 7.1281 -204.069 4.5881C-183.719 -5.5019 -162.199 -12.4319 -140.119 -15.9919C-117.829 -19.5919 -95.2691 -19.7319 -73.0691 -16.3919C-50.6091 -13.0219 -28.8391 -6.1419 -8.36913 4.0581C12.2009 14.2981 31.2509 27.7781 48.2509 44.1281C52.3709 48.0881 52.5009 54.6381 48.5409 58.7581C46.5109 60.8681 43.7909 61.9381 41.0809 61.9381H41.0909Z" fill="#FDDA24"/>
<path d="M377.551 331.738C372.961 331.738 368.331 331.578 363.681 331.268C357.501 330.828 352.051 330.148 346.961 329.188C341.541 328.168 336.061 326.818 330.661 325.188C325.681 323.688 320.481 321.798 314.781 319.418C312.491 318.478 310.251 317.438 308.081 316.438L305.961 315.428C303.831 314.378 301.621 313.288 299.381 312.068C293.341 308.788 291.101 301.228 294.391 295.188C297.671 289.148 305.231 286.908 311.271 290.198C313.081 291.178 314.981 292.118 316.981 293.108L318.531 293.848C320.551 294.778 322.451 295.658 324.321 296.428C329.291 298.508 333.691 300.108 337.851 301.368C342.411 302.748 347.021 303.878 351.571 304.738C355.711 305.518 360.231 306.078 365.381 306.438C385.151 307.758 404.321 305.878 422.331 300.828C431.341 298.308 440.341 294.848 449.101 290.558C457.561 286.338 465.861 281.188 473.671 275.298C488.751 263.988 502.571 249.258 514.761 231.508C518.661 225.838 526.411 224.408 532.071 228.298C537.741 232.188 539.171 239.938 535.281 245.608C521.551 265.588 505.851 282.278 488.631 295.198C479.631 301.988 470.031 307.938 460.141 312.878C449.951 317.878 439.521 321.878 429.051 324.808C412.581 329.428 395.301 331.758 377.551 331.758V331.738Z" fill="#FDDA24"/>
<path d="M377.23 336.868C374.78 336.868 372.33 336.828 369.89 336.748L367.29 336.658L364.75 336.508C363.12 336.418 361.44 336.318 359.68 336.138L358.89 336.068C357.48 335.938 356.02 335.808 354.49 335.598L353.39 335.458C352.12 335.298 350.81 335.128 349.43 334.888C336.31 332.818 323 328.868 309.89 323.158C298.04 318.008 285.96 311.238 273.97 303.048C263.35 295.788 252.83 287.488 241.82 277.698C224.28 262.048 206.4 243.408 185.57 219.028C182.92 215.928 183.28 211.258 186.39 208.608C189.49 205.958 194.16 206.318 196.81 209.428C217.2 233.278 234.63 251.468 251.66 266.658C262.19 276.018 272.22 283.938 282.32 290.838C293.54 298.508 304.8 304.818 315.79 309.598C327.79 314.818 339.9 318.418 351.81 320.288L351.97 320.318C352.99 320.498 354.08 320.638 355.24 320.788L356.5 320.948C357.72 321.118 358.93 321.228 360.21 321.348L361.11 321.428C362.62 321.578 364.07 321.668 365.6 321.748L368.06 321.888L370.4 321.968C376.63 322.178 382.93 322.098 389.1 321.728C395.06 321.388 401.13 320.708 407.65 319.648C414.44 318.518 420.41 317.228 425.85 315.698C432.29 313.908 438.11 311.978 443.65 309.778C449.88 307.268 455.48 304.688 460.72 301.908C464.33 299.998 468.8 301.368 470.72 304.978C472.63 308.588 471.26 313.058 467.65 314.978C461.95 318.008 455.89 320.798 449.12 323.518C443.05 325.918 436.74 328.018 429.81 329.938C423.86 331.608 417.39 333.008 410.03 334.228C403.07 335.358 396.32 336.118 389.95 336.478C385.74 336.728 381.48 336.858 377.21 336.858L377.23 336.868Z" fill="#00C389"/>
<path d="M249.511 269.028C247.661 269.028 245.811 268.368 244.341 267.018C220.051 244.808 198.261 219.518 181.991 199.958C172.161 188.148 162.371 175.938 152.901 164.138C143.531 152.468 133.851 140.398 124.121 128.698C121.411 125.448 121.861 120.618 125.121 117.908C128.371 115.208 133.211 115.648 135.911 118.908C145.721 130.718 155.451 142.838 164.851 154.548C174.281 166.298 184.031 178.448 193.771 190.158C209.731 209.338 231.071 234.128 254.681 255.708C257.801 258.568 258.021 263.408 255.161 266.528C253.651 268.178 251.581 269.018 249.501 269.018L249.511 269.028Z" fill="#F5B6CD"/>
<path d="M85.4508 89.1879C84.0108 89.1879 82.5708 88.5979 81.5308 87.4479L57.4708 60.7179C57.1408 60.3479 56.8108 59.9779 56.4608 59.6079L54.7308 57.7679C45.6308 47.9779 35.7708 38.9879 25.3808 31.0279L25.2608 30.9279C24.5108 30.3179 23.6908 29.7279 22.8208 29.1079C22.3408 28.7679 21.8708 28.4279 21.4008 28.0779L17.4508 25.2179L13.3608 22.4879C12.9208 22.1979 12.4308 21.8679 11.9408 21.5379C11.0608 20.9479 10.2308 20.3779 9.41077 19.8979L4.29078 16.7579C3.87078 16.4979 3.46078 16.2479 3.04078 15.9979L-3.41924 12.3579C-4.28924 11.8779 -5.18922 11.4179 -6.07922 10.9579C-6.61922 10.6879 -7.15923 10.4079 -7.68923 10.1279C-19.4992 4.07787 -31.5192 -0.792132 -43.3892 -4.32213C-46.1792 -5.15213 -47.7692 -8.08213 -46.9292 -10.8721C-46.0992 -13.6621 -43.1692 -15.2521 -40.3792 -14.4121C-27.8992 -10.6921 -15.2692 -5.58213 -2.84924 0.777868C-2.30924 1.05787 -1.80923 1.31787 -1.30923 1.56787C-0.289227 2.08787 0.730782 2.60787 1.73078 3.16787L8.27076 6.84787C8.83076 7.17787 9.33076 7.47787 9.83076 7.78787L14.8408 10.8679C15.8508 11.4679 16.8608 12.1479 17.8308 12.7979C18.2708 13.0979 18.7208 13.3979 19.1608 13.6879L23.5408 16.6179L27.6208 19.5679C28.0908 19.9179 28.5308 20.2279 28.9608 20.5379C29.9008 21.2079 30.8708 21.9079 31.8408 22.6979C42.6708 30.9979 52.9608 40.3779 62.4208 50.5579L64.1508 52.3879C64.5608 52.8279 64.9308 53.2479 65.3108 53.6579L89.3608 80.3779C91.3108 82.5379 91.1308 85.8679 88.9708 87.8179C87.9608 88.7279 86.7008 89.1679 85.4508 89.1679V89.1879Z" fill="#F5B6CD"/>
</g>
<defs>
<clipPath id="clip0_3260_71684">
<rect width="375" height="343" fill="white"/>
</clipPath>
</defs>
</svg>
