<svg width="423" height="83" viewBox="0 0 423 83" fill="none" xmlns="http://www.w3.org/2000/svg">
<path fill-rule="evenodd" clip-rule="evenodd" d="M2.63844 31.8032C4.111 30.5806 6.30219 30.7756 7.53262 32.2389C9.96228 35.1283 12.5249 37.8378 15.2971 40.2477L15.3055 40.255C15.6125 40.5236 15.7709 40.6729 15.8874 40.7825C16.0135 40.9013 16.0904 40.9737 16.2532 41.101C16.2735 41.1169 16.2936 41.133 16.3135 41.1493L17.4347 42.0671C17.7124 42.2914 17.955 42.4918 18.1775 42.6755C18.6732 43.0848 19.0694 43.412 19.5325 43.7386C19.5538 43.7537 19.575 43.7689 19.596 43.7845L21.8742 45.469L24.2305 47.0386C24.2543 47.0545 24.278 47.0707 24.3015 47.0872C24.736 47.3924 25.1213 47.6188 25.6126 47.9074C25.8921 48.0716 26.2058 48.2559 26.5823 48.4863L27.8172 49.2235C27.8375 49.2356 27.8577 49.248 27.8778 49.2605C28.0519 49.3693 28.1467 49.4173 28.3028 49.4961C28.4411 49.566 28.6274 49.6601 28.9595 49.8424C29.3062 50.0246 29.6275 50.196 29.938 50.3616C30.4383 50.6285 30.9106 50.8803 31.4158 51.1385L34.6503 52.65C34.6515 52.6505 34.6526 52.6511 34.6538 52.6516C34.7264 52.6853 34.7546 52.6961 34.8114 52.718C34.8722 52.7414 34.9657 52.7774 35.1811 52.8674L36.506 53.4061C36.5071 53.4066 36.5081 53.407 36.5092 53.4074C36.7292 53.4963 36.9348 53.5805 37.13 53.6604C37.8251 53.9449 38.3865 54.1747 38.9846 54.368C39.01 54.3762 39.0353 54.3847 39.0604 54.3935L41.7219 55.3216L44.3939 56.1037C48.0118 57.0883 51.603 57.8724 55.1932 58.2686L55.2271 58.2725C55.5616 58.3127 55.7729 58.3432 55.9399 58.3674C56.1471 58.3973 56.2861 58.4174 56.5077 58.4339L56.5275 58.4355L57.9741 58.5517L59.4067 58.6679C59.5761 58.6806 59.6805 58.6897 59.7635 58.697C59.8516 58.7047 59.9156 58.7103 60.0076 58.7158L63.5119 58.8208C64.0714 58.8157 64.6038 58.804 65.1597 58.7918C65.5278 58.7837 65.9062 58.7754 66.3097 58.7686C66.3323 58.7682 66.3548 58.7681 66.3773 58.7681C66.979 58.7696 67.5469 58.7282 68.2537 58.6765C68.4896 58.6593 68.7409 58.6409 69.0141 58.6226C69.2575 58.6049 69.4848 58.5893 69.7 58.5746C70.4347 58.5244 71.0284 58.4839 71.6416 58.3957C71.6619 58.3927 71.6823 58.39 71.7026 58.3874C72.1162 58.3354 72.4944 58.2906 72.8576 58.2476C73.4075 58.1825 73.9231 58.1215 74.4755 58.0452L77.2338 57.572C80.8599 56.8668 84.4232 55.9303 87.8812 54.7216C89.6914 54.0888 91.6751 55.0341 92.3119 56.8329C92.9487 58.6316 91.9974 60.6027 90.1872 61.2355C86.3673 62.5707 82.463 63.593 78.5287 64.3563C78.5038 64.3612 78.4789 64.3657 78.4539 64.37L75.6024 64.8592C75.566 64.8655 75.5296 64.8711 75.4931 64.8762C74.8676 64.9632 74.192 65.0436 73.5621 65.1185C73.2249 65.1585 72.9009 65.1971 72.6047 65.2342C71.7153 65.3605 70.7953 65.4226 70.0349 65.4739C69.8508 65.4863 69.6761 65.4981 69.5134 65.51L69.4908 65.5115C69.3195 65.523 69.1332 65.5367 68.9355 65.5513C68.1885 65.6065 67.2779 65.6737 66.3958 65.6733C66.0789 65.6788 65.7417 65.6861 65.3951 65.6936C64.7733 65.7071 64.1215 65.7212 63.5034 65.7263C63.4587 65.7267 63.4141 65.7262 63.3695 65.7249L59.7535 65.6165C59.7245 65.6157 59.6956 65.6144 59.6666 65.6129C59.4642 65.6018 59.1751 65.5777 59.002 65.5632C58.9441 65.5584 58.8992 65.5546 58.8749 65.5528L58.8522 65.551L55.9873 65.3197C55.9835 65.3194 55.9797 65.3191 55.9758 65.3189C55.5518 65.2866 54.9846 65.2084 54.6422 65.1612C54.5401 65.1471 54.458 65.1358 54.4057 65.1293C50.3291 64.678 46.3561 63.7984 42.5249 62.7545C42.5142 62.7516 42.5035 62.7486 42.4928 62.7456C42.4825 62.7427 42.4723 62.7397 42.462 62.7367L39.6733 61.9205C39.6166 61.9039 39.5602 61.8859 39.5044 61.8664L36.7948 60.9214C35.9311 60.64 35.0719 60.2874 34.3606 59.9955C34.1945 59.9274 34.0365 59.8625 33.8883 59.8027L32.5338 59.2518L32.5021 59.2388C32.5012 59.2384 32.496 59.2363 32.4871 59.2328C32.4007 59.1984 31.9639 59.0246 31.7067 58.905L31.6986 58.9013L28.4041 57.3618C28.3681 57.3449 28.3323 57.3275 28.2969 57.3094C27.7262 57.0186 27.1245 56.698 26.5593 56.3968C26.2529 56.2335 25.9572 56.0759 25.6829 55.9319C25.6628 55.9213 25.6428 55.9106 25.6228 55.8996C25.5994 55.8867 25.5457 55.8587 25.4709 55.8198C25.1886 55.6727 24.6056 55.369 24.2142 55.1281L22.9869 54.3954L22.953 54.3749C22.7902 54.2752 22.5885 54.1562 22.3628 54.0231C21.7591 53.667 20.9844 53.21 20.3279 52.7521L17.9338 51.1574C17.8864 51.1259 17.8399 51.0932 17.7942 51.0594L15.477 49.346C14.793 48.8609 14.101 48.2895 13.5424 47.8282C13.3603 47.6778 13.1924 47.5392 13.0436 47.419L13.0251 47.404L11.9185 46.4981C11.5592 46.2127 11.0706 45.7645 10.8372 45.5505C10.7784 45.4965 10.7358 45.4574 10.7156 45.4396C7.6056 42.7354 4.7936 39.7508 2.20001 36.6664C0.969587 35.2032 1.16588 33.0259 2.63844 31.8032Z" fill="#59CBE8"/>
<path fill-rule="evenodd" clip-rule="evenodd" d="M1.66429 38.6139C2.51133 37.8246 3.84196 37.867 4.63634 38.7087C4.79994 38.882 4.92545 39.0199 5.03617 39.1415C5.19975 39.3212 5.33107 39.4654 5.50532 39.6363L5.50749 39.6384L6.46922 40.5844C6.70459 40.8144 6.93072 41.0375 7.15271 41.2564C7.55772 41.6559 7.94894 42.0418 8.35733 42.4314L11.3216 45.072L14.4001 47.5576L16.5393 49.1233L16.5429 49.1258L17.6319 49.9194C17.6321 49.9195 17.6317 49.9192 17.6319 49.9194C17.8288 50.0627 17.9915 50.1679 18.1931 50.2982C18.33 50.3866 18.485 50.4868 18.6813 50.6187L20.914 52.0832C26.8665 55.8089 33.3064 58.7539 39.9954 60.9194C41.0996 61.2768 41.703 62.456 41.3433 63.5532C40.9836 64.6503 39.7969 65.2499 38.6928 64.8925C31.6864 62.6243 24.9218 59.5326 18.6532 55.6067C18.6407 55.5989 18.6283 55.5909 18.6159 55.5828L16.3547 54.0996L16.3344 54.0861C16.2578 54.0346 16.1559 53.9683 16.04 53.8929C15.7694 53.7168 15.4228 53.4913 15.1462 53.2899L14.0525 52.493L14.049 52.4904L11.8663 50.8929C11.8396 50.8734 11.8135 50.8533 11.7878 50.8325L8.62957 48.2826C8.60424 48.2621 8.57939 48.241 8.55505 48.2194L7.54096 47.3184L5.52224 45.5179C5.50503 45.5025 5.48807 45.4869 5.47138 45.471C5.02995 45.0503 4.58386 44.6104 4.15328 44.1858C3.93682 43.9724 3.72429 43.7628 3.51824 43.5615L3.51322 43.5566L2.55121 42.6103C2.55081 42.6099 2.55041 42.6095 2.55001 42.6091C2.30307 42.3668 2.02343 42.0614 1.80519 41.8231C1.71318 41.7226 1.63208 41.6341 1.56894 41.5672C0.774566 40.7255 0.817256 39.4033 1.66429 38.6139Z" fill="#9063CD"/>
<path fill-rule="evenodd" clip-rule="evenodd" d="M116.122 46.7705C117.568 48.6722 117.189 51.3787 115.275 52.8155C106.061 59.7321 95.5558 64.7371 84.5411 67.4871C73.5292 70.2463 62.0188 70.7493 50.8548 68.917C48.4882 68.5286 46.8866 66.3073 47.2775 63.9557C47.6684 61.604 49.9038 60.0125 52.2704 60.4009C62.2424 62.0376 72.5494 61.5907 82.4206 59.1168L82.4244 59.1158C92.2974 56.6509 101.744 52.1552 110.039 45.9285C111.952 44.4917 114.676 44.8687 116.122 46.7705Z" fill="#00C389"/>
<path fill-rule="evenodd" clip-rule="evenodd" d="M317.583 20.581C303.765 15.4231 284.325 10.6782 261.715 12.2193C238.981 13.769 219.529 20.5783 205.725 27.038C198.836 30.2624 193.389 33.3828 189.689 35.6803C187.84 36.8284 186.429 37.769 185.496 38.4116C185.03 38.7328 184.683 38.9793 184.46 39.1398C184.349 39.22 184.269 39.2788 184.22 39.3145L184.171 39.3508L184.17 39.3515C184.169 39.3521 184.168 39.3528 184.167 39.3534C184.167 39.3538 184.166 39.3543 184.166 39.3547C184.165 39.3548 184.166 39.3546 184.166 39.3547C181.528 41.3324 177.781 40.8071 175.794 38.1793C173.806 35.55 174.332 31.8117 176.97 29.8297L180.57 34.5906C176.97 29.8297 176.972 29.8285 176.973 29.8273L176.988 29.8164L177.018 29.7941C177.042 29.7761 177.074 29.7522 177.114 29.7225C177.195 29.6631 177.308 29.5806 177.453 29.4762C177.742 29.2676 178.159 28.9719 178.698 28.6007C179.776 27.8584 181.345 26.8135 183.366 25.5588C187.405 23.0506 193.266 19.6963 200.642 16.2443C215.372 9.35119 236.288 2.00075 260.9 0.32315C285.636 -1.36301 306.814 3.82862 321.777 9.41421C329.268 12.2102 335.235 15.1172 339.357 17.3432C341.419 18.4569 343.023 19.4022 344.13 20.0809C344.683 20.4203 345.112 20.6934 345.412 20.8877C345.562 20.9849 345.679 21.0624 345.764 21.1188C345.787 21.134 345.807 21.1476 345.825 21.1597C345.841 21.1701 345.854 21.1793 345.866 21.1873L345.899 21.2093L345.915 21.2204C345.917 21.2217 345.919 21.223 342.543 26.1445L345.919 21.223C348.646 23.0815 349.345 26.7915 347.48 29.5096C345.618 32.2253 341.901 32.9233 339.175 31.0707C339.173 31.0698 339.172 31.0689 339.171 31.068L339.168 31.0659M339.168 31.0659L339.126 31.0378C339.079 31.0069 339.001 30.9551 338.891 30.8839C338.671 30.7415 338.326 30.5213 337.86 30.2354C336.928 29.6635 335.514 28.8292 333.66 27.8277C329.948 25.8231 324.484 23.1568 317.583 20.581" fill="#FDDA24"/>
<path fill-rule="evenodd" clip-rule="evenodd" d="M417.341 82C418.074 82 418.819 81.8216 419.513 81.4453C421.79 80.2104 422.662 77.3129 421.46 74.9732C417.626 67.5115 413.038 59.9967 407.822 52.6374C402.719 45.4524 397.153 38.6689 391.278 32.4712C385.189 26.0456 378.696 20.1789 371.979 15.0346C364.981 9.67545 357.617 4.99459 350.093 1.122C347.79 -0.0632656 344.989 0.893705 343.836 3.25889C342.682 5.62407 343.613 8.50219 345.916 9.68709C352.952 13.3085 359.846 17.6916 366.406 22.7153C372.729 27.5579 378.849 33.089 384.597 39.1544C390.166 45.0295 395.445 51.4641 400.286 58.2804C405.237 65.2655 409.587 72.3878 413.213 79.4451C414.049 81.0715 415.667 82 417.341 82Z" fill="#9063CD"/>
<path fill-rule="evenodd" clip-rule="evenodd" d="M164.758 29.9751C164.981 29.9246 165.201 29.8418 165.411 29.7247C170.235 27.0403 174.935 24.1125 179.726 21.0983L180.255 20.7653C184.635 18.0105 189.164 15.1617 193.692 12.6038C194.902 11.9204 195.34 10.3577 194.671 9.11341C194.001 7.86897 192.478 7.41471 191.268 8.09795C186.638 10.7134 182.058 13.5939 177.63 16.3796L177.1 16.7125C172.368 19.6895 167.731 22.5789 163.014 25.2034C161.8 25.879 161.352 27.4389 162.014 28.6874C162.561 29.7194 163.696 30.2157 164.758 29.9751Z" fill="#00C389"/>
<path fill-rule="evenodd" clip-rule="evenodd" d="M367.093 68.8023C368.853 69.192 370.753 68.9191 372.38 67.8905C375.641 65.8291 376.566 61.5129 374.446 58.2499C371.025 52.9833 367.243 48.0423 363.204 43.5645C358.976 38.874 354.365 34.5808 349.501 30.8051C346.911 28.7984 344.31 26.9683 341.766 25.362C339.131 23.6946 336.37 22.1237 333.565 20.6971L332.561 20.1933C332.17 19.9955 331.782 19.8014 331.347 19.6033L329.202 18.6067L327.22 17.7507C326.764 17.5496 326.333 17.3773 325.969 17.2343L323.75 16.359L322.672 15.9664C322.475 15.8967 322.28 15.8247 322.084 15.7527C321.587 15.5701 321.024 15.3637 320.412 15.1689L318.174 14.4327L316.078 13.8074C312.34 12.6949 308.439 14.7843 307.364 18.4794C306.288 22.1743 308.447 26.0735 312.184 27.1883L314.181 27.7839L316.249 28.4663C316.567 28.5669 316.946 28.7061 317.348 28.8536C317.579 28.9384 317.81 29.0232 318.042 29.106L318.961 29.4408L320.922 30.2172C321.155 30.3085 321.424 30.4151 321.647 30.5143L321.712 30.5427L323.631 31.3711L325.592 32.285C325.791 32.3752 326.033 32.4967 326.306 32.635L327.29 33.1283C329.69 34.3496 332.051 35.6935 334.309 37.1224C336.473 38.4888 338.695 40.053 340.918 41.7758C345.111 45.0303 349.098 48.7439 352.763 52.8096C356.301 56.7331 359.623 61.0749 362.638 65.7154C363.7 67.3504 365.325 68.4107 367.093 68.8023Z" fill="#FF7F41"/>
<path fill-rule="evenodd" clip-rule="evenodd" d="M218.397 26.1729C244.239 14.9576 273.143 13.3303 298.572 19.2108C300.717 19.7068 302.052 21.8424 301.555 23.9808C301.057 26.1192 298.915 27.4505 296.77 26.9545C272.87 21.4275 245.726 22.9819 221.58 33.4614C219.561 34.3376 217.212 33.4164 216.333 31.4037C215.454 29.391 216.378 27.0491 218.397 26.1729Z" fill="#59CBE8"/>
</svg>
