<svg width="48" height="48" viewBox="0 0 48 48" fill="none" xmlns="http://www.w3.org/2000/svg">
<path fill-rule="evenodd" clip-rule="evenodd" d="M6.88281 42.9469C6.88281 42.3117 7.39769 41.7969 8.03281 41.7969H39.9683C40.6034 41.7969 41.1183 42.3117 41.1183 42.9469C41.1183 43.582 40.6034 44.0969 39.9683 44.0969H8.03281C7.39769 44.0969 6.88281 43.582 6.88281 42.9469Z" fill="#59CBE8"/>
<path fill-rule="evenodd" clip-rule="evenodd" d="M8.03281 19.6289C8.66794 19.6289 9.18281 20.1438 9.18281 20.7789V42.9456C9.18281 43.5807 8.66794 44.0956 8.03281 44.0956C7.39769 44.0956 6.88281 43.5807 6.88281 42.9456V20.7789C6.88281 20.1438 7.39769 19.6289 8.03281 19.6289Z" fill="#9063CD"/>
<path fill-rule="evenodd" clip-rule="evenodd" d="M24.8446 5.22045C25.276 5.68659 25.2478 6.41418 24.7817 6.84558L8.81393 21.6234C8.3478 22.0548 7.6202 22.0266 7.1888 21.5605C6.75741 21.0943 6.78557 20.3667 7.2517 19.9353L23.2194 5.15755C23.6856 4.72616 24.4132 4.75432 24.8446 5.22045Z" fill="#FDDA24"/>
<path fill-rule="evenodd" clip-rule="evenodd" d="M23.1576 5.22045C23.589 4.75432 24.3165 4.72616 24.7827 5.15755L40.7504 19.9353C41.2166 20.3667 41.2447 21.0943 40.8133 21.5605C40.3819 22.0266 39.6543 22.0548 39.1882 21.6234L23.2205 6.84558C22.7543 6.41418 22.7262 5.68659 23.1576 5.22045Z" fill="#F5B6CD"/>
<path fill-rule="evenodd" clip-rule="evenodd" d="M39.9664 19.6289C40.6015 19.6289 41.1164 20.1438 41.1164 20.7789V42.9456C41.1164 43.5807 40.6015 44.0956 39.9664 44.0956C39.3313 44.0956 38.8164 43.5807 38.8164 42.9456V20.7789C38.8164 20.1438 39.3313 19.6289 39.9664 19.6289Z" fill="#00C389"/>
<path fill-rule="evenodd" clip-rule="evenodd" d="M28.3616 25.7164C29.6011 26.7357 30.4089 28.2624 30.4179 30.2092C30.4329 33.4174 30.4465 36.6005 30.4564 38.9816L30.4725 42.9419L29.3225 42.9464C28.1725 42.9509 28.1725 42.9509 28.1725 42.9508L28.1564 38.9912C28.1465 36.6103 28.1329 33.4276 28.118 30.2199C28.1121 28.9588 27.6131 28.0787 26.9007 27.4929C26.1617 26.8851 25.1335 26.5504 24.0591 26.55C22.9845 26.5496 21.9596 26.8837 21.2255 27.4896C20.5186 28.073 20.0237 28.9514 20.0238 30.2145C20.0241 33.4367 19.9748 36.6282 19.9255 39.0129C19.9009 40.2056 19.8762 41.1972 19.8577 41.891C19.8485 42.2379 19.8407 42.5103 19.8353 42.6962L19.8268 42.9822C19.8268 42.9823 19.8268 42.9823 18.6774 42.9464L17.5279 42.9105L17.5363 42.6293C17.5417 42.4451 17.5493 42.1745 17.5585 41.8296C17.5769 41.1398 17.6015 40.1528 17.626 38.9654C17.6751 36.5898 17.7241 33.4154 17.7238 30.2146C17.7237 28.2662 18.5242 26.7368 19.7615 25.7157C20.9716 24.717 22.5396 24.2495 24.0599 24.25C25.5803 24.2505 27.1489 24.7191 28.3616 25.7164ZM18.6415 44.0959C18.0066 44.076 17.5081 43.5453 17.5279 42.9105L18.6774 42.9464L19.8268 42.9822C19.807 43.617 19.2763 44.1157 18.6415 44.0959ZM29.327 44.0964C28.6919 44.0989 28.175 43.586 28.1725 42.9508L29.3225 42.9464L30.4725 42.9419C30.475 43.577 29.9621 44.0939 29.327 44.0964Z" fill="#FF7F41"/>
</svg>
