<svg width="48" height="48" viewBox="0 0 48 48" fill="none" xmlns="http://www.w3.org/2000/svg">
<rect x="28.2258" y="10.6126" width="2.22104" height="14.6507" rx="1.11052" transform="rotate(52.1078 28.2258 10.6126)" fill="#59CBE8"/>
<rect x="29.5911" y="33.6204" width="2.22104" height="14.6507" rx="1.11052" transform="rotate(127.886 29.5911 33.6204)" fill="#F5B6CD"/>
<path d="M20 23.0001C20 26.3138 17.3137 29.0001 14 29.0001C10.6863 29.0001 8 26.3138 8 23.0001C8 19.6864 10.6863 17.0001 14 17.0001C17.3137 17.0001 20 19.6864 20 23.0001ZM9.995 23.0001C9.995 25.212 11.7881 27.0051 14 27.0051C16.2119 27.0051 18.005 25.212 18.005 23.0001C18.005 20.7882 16.2119 18.9951 14 18.9951C11.7881 18.9951 9.995 20.7882 9.995 23.0001Z" fill="#9063CD"/>
<path d="M33.4743 42.8163C30.2621 43.6304 26.9982 41.6864 26.1841 38.4743C25.3699 35.2621 27.3139 31.9982 30.5261 31.1841C33.7382 30.3699 37.0021 32.3139 37.8163 35.5261C38.6304 38.7382 36.6864 42.0021 33.4743 42.8163ZM31.0162 33.1179C28.8721 33.6614 27.5745 35.84 28.1179 37.9841C28.6614 40.1282 30.84 41.4258 32.9841 40.8824C35.1282 40.339 36.4258 38.1603 35.8824 36.0162C35.339 33.8721 33.1603 32.5745 31.0162 33.1179Z" fill="#00C389"/>
<path d="M38 9C38 12.3137 35.3137 15 32 15C28.6863 15 26 12.3137 26 9C26 5.68629 28.6863 3 32 3C35.3137 3 38 5.68629 38 9ZM27.995 9C27.995 11.2119 29.7881 13.005 32 13.005C34.2119 13.005 36.005 11.2119 36.005 9C36.005 6.7881 34.2119 4.995 32 4.995C29.7881 4.995 27.995 6.7881 27.995 9Z" fill="#FDDA24"/>
</svg>
