<svg width="48" height="48" viewBox="0 0 48 48" fill="none" xmlns="http://www.w3.org/2000/svg">
<path d="M34 14H36V24H34V14Z" fill="#00C389"/>
<path fill-rule="evenodd" clip-rule="evenodd" d="M25 16V22H23V19V16H25Z" fill="#FF7F41"/>
<path fill-rule="evenodd" clip-rule="evenodd" d="M12 24V13H14V24H12Z" fill="#00C389"/>
<path fill-rule="evenodd" clip-rule="evenodd" d="M41.2025 20.1582C40.6265 20.54 40.1145 21.1306 39.832 21.5544L39.7771 21.6368L37.6371 23.7767L34.5547 25.8316L33.4453 24.1675L36.3629 22.2224L38.2261 20.3594C38.6194 19.7906 39.2819 19.0318 40.0975 18.4912C40.9317 17.9383 42.1398 17.488 43.3828 18.074C44.0353 18.3068 44.9067 18.84 45.3717 19.7819C45.8955 20.8429 45.7732 22.1426 44.832 23.5543L42.7584 26.6647L34.6585 33.7521C34.4762 33.9116 34.2422 33.9996 34 33.9996H18V31.9996H33.6243L41.2416 25.3344L43.1679 22.4449C43.8268 21.4565 43.7045 20.923 43.5783 20.6673C43.4094 20.325 43.0251 20.0622 42.6838 19.9484L42.6164 19.9259L42.5528 19.8941C42.2184 19.7269 41.7872 19.7707 41.2025 20.1582Z" fill="#F5B6CD"/>
<path fill-rule="evenodd" clip-rule="evenodd" d="M25.2287 22.0002H32.0005C32.4938 22.0003 33.2116 22.1401 33.8348 22.5888C34.5089 23.0742 35.0005 23.8744 35.0005 25.0003C35.0005 25.4937 34.8607 26.2115 34.412 26.8346C33.9266 27.5088 33.1264 28.0003 32.0005 28.0003H26.0005V26.0003H32.0005C32.4745 26.0003 32.6743 25.8252 32.7889 25.666C32.9402 25.4559 33.0005 25.1737 33.0005 25.0003C33.0005 24.5263 32.8253 24.3264 32.6661 24.2118C32.456 24.0605 32.1738 24.0002 32.0005 24.0002C32.0004 24.0002 32.0005 24.0002 32.0005 24.0002H24.7644L24.5533 23.8947C22.1105 22.6733 16.144 21.536 11.7597 26.651L10.2412 25.3494C15.3297 19.4129 22.2118 20.5968 25.2287 22.0002Z" fill="#9063CD"/>
<path fill-rule="evenodd" clip-rule="evenodd" d="M8.82119 25.8559C8.55084 25.9099 8.26836 26.1462 7.70741 26.7074L5.41436 29.0005L16.0002 39.5863L19.2325 36.3539C19.2635 36.2514 19.3377 35.7522 18.293 34.7076L10.293 26.7076C9.38637 25.8009 8.96014 25.8281 8.82119 25.8559ZM11.7073 25.2934C10.6139 24.2 9.54016 23.6726 8.42911 23.8947C7.49919 24.0806 6.80546 24.7782 6.36189 25.2243C6.33823 25.2481 6.31528 25.2711 6.29304 25.2934C6.2931 25.2933 6.29299 25.2934 6.29304 25.2934L2.58594 29.0005L16.0002 42.4147L20.7073 37.7076C21.6466 36.7683 21.44 35.0261 19.7073 33.2934L11.7073 25.2934C11.7073 25.2934 11.7073 25.2934 11.7073 25.2934Z" fill="#59CBE8"/>
<path fill-rule="evenodd" clip-rule="evenodd" d="M12.2929 27.2929C12.6834 26.9024 13.3166 26.9024 13.7071 27.2929L19.7071 33.2929C21.4398 35.0256 21.6464 36.7678 20.7071 37.7071L16 42.4142L12.2929 38.7071C11.9024 38.3166 11.9024 37.6834 12.2929 37.2929C12.6834 36.9024 13.3166 36.9024 13.7071 37.2929L16 39.5858L19.2324 36.3534C19.2634 36.2509 19.3375 35.7517 18.2929 34.7071L12.2929 28.7071C11.9024 28.3166 11.9024 27.6834 12.2929 27.2929Z" fill="#FF7F41"/>
<path fill-rule="evenodd" clip-rule="evenodd" d="M40.4669 27.3415C40.8306 27.7571 40.7884 28.3889 40.3728 28.7526L34.6585 33.7526C34.2429 34.1163 33.6111 34.0742 33.2474 33.6585C32.8838 33.2429 32.9259 32.6111 33.3415 32.2474L39.0558 27.2474C39.4714 26.8838 40.1032 26.9259 40.4669 27.3415Z" fill="#FDDA24"/>
<path fill-rule="evenodd" clip-rule="evenodd" d="M21.6611 6H35.6176L39.6176 14H26.4316L21.6611 6ZM25.1823 8L27.5676 12H36.3815L34.3815 8H25.1823Z" fill="#00C389"/>
<path fill-rule="evenodd" clip-rule="evenodd" d="M12.1054 6.55279C12.2748 6.214 12.6211 6 12.9999 6H24.5986C24.9588 6 25.2912 6.19376 25.4687 6.50723C25.6462 6.8207 25.6414 7.20542 25.4561 7.51436L21.5662 14H8.38184L12.1054 6.55279ZM13.6179 8L11.6179 12H20.4336L22.8327 8H13.6179Z" fill="#FF7F41"/>
</svg>
