<svg width="48" height="48" viewBox="0 0 48 48" fill="none" xmlns="http://www.w3.org/2000/svg">
<path d="M3.5 24.9984C2.6 24.9984 2 24.3984 2 23.4984C2 17.4984 4.4 11.7984 8.6 7.59844C9.2 6.99844 10.1 6.99844 10.7 7.59844C11.3 8.19844 11.3 9.09844 10.7 9.69844C7.1 13.4484 5 18.2484 5 23.4984C5 24.2484 4.4 24.9984 3.5 24.9984Z" fill="#FDDA24"/>
<path d="M24.5 46C12.05 46 2 35.95 2 23.5C2 22.6 2.6 22 3.5 22C4.4 22 5 22.6 5 23.5C5 34.3 13.7 43 24.5 43C25.4 43 26 43.6 26 44.5C26 45.4 25.4 46 24.5 46Z" fill="#59CBE8"/>
<path d="M24.5 46C23.6 46 23 45.4 23 44.5C23 43.6 23.6 43 24.5 43C35.3 43 44 34.3 44 23.5C44 22.6 44.6 22 45.5 22C46.4 22 47 22.6 47 23.5C47 35.95 36.95 46 24.5 46Z" fill="#F5B6CD"/>
<path d="M45.5 25C44.6 25 44 24.4 44 23.5C44 12.7 35.3 4 24.5 4C23.6 4 23 3.4 23 2.5C23 1.6 23.6 1 24.5 1C36.95 1 47 11.05 47 23.5C47 24.25 46.4 25 45.5 25Z" fill="#FF7F41"/>
<path d="M9.64844 10.15C9.19844 10.15 8.89844 10 8.59844 9.7C7.99844 9.1 7.99844 8.2 8.59844 7.6C12.7984 3.4 18.4984 1 24.4984 1C25.3984 1 25.9984 1.6 25.9984 2.5C25.9984 3.4 25.3984 4 24.4984 4C19.2484 4 14.4484 6.1 10.6984 9.7C10.3984 10 10.0984 10.15 9.64844 10.15Z" fill="#FDDA24"/>
<path fill-rule="evenodd" clip-rule="evenodd" d="M24 9C24.5523 9 25 9.30526 25 9.68182V19.3182C25 19.6947 24.5523 20 24 20C23.4477 20 23 19.6947 23 19.3182V9.68182C23 9.30526 23.4477 9 24 9Z" fill="#00C389"/>
<path fill-rule="evenodd" clip-rule="evenodd" d="M24 18C24.5523 18 25 18.3053 25 18.6818V28.3182C25 28.6947 24.5523 29 24 29C23.4477 29 23 28.6947 23 28.3182V18.6818C23 18.3053 23.4477 18 24 18Z" fill="#FF7F41"/>
<path fill-rule="evenodd" clip-rule="evenodd" d="M20 24C20 24.5523 19.6947 25 19.3182 25L9.68182 25C9.30526 25 9 24.5523 9 24C9 23.4477 9.30526 23 9.68182 23L19.3182 23C19.6947 23 20 23.4477 20 24Z" fill="#F5B6CD"/>
<path fill-rule="evenodd" clip-rule="evenodd" d="M39 24C39 24.5523 38.6947 25 38.3182 25L28.6818 25C28.3053 25 28 24.5523 28 24C28 23.4477 28.3053 23 28.6818 23L38.3182 23C38.6947 23 39 23.4477 39 24Z" fill="#59CBE8"/>
<path fill-rule="evenodd" clip-rule="evenodd" d="M24 27C24.5523 27 25 27.2442 25 27.5455V38.4545C25 38.7558 24.5523 39 24 39C23.4477 39 23 38.7558 23 38.4545V27.5455C23 27.2442 23.4477 27 24 27Z" fill="#FDDA24"/>
<path fill-rule="evenodd" clip-rule="evenodd" d="M29 24C29 24.5523 28.6947 25 28.3182 25L18.6818 25C18.3053 25 18 24.5523 18 24C18 23.4477 18.3053 23 18.6818 23L28.3182 23C28.6947 23 29 23.4477 29 24Z" fill="#9063CD"/>
</svg>
