<svg width="121" height="120" viewBox="0 0 121 120" fill="none" xmlns="http://www.w3.org/2000/svg">
<path fill-rule="evenodd" clip-rule="evenodd" d="M35.5 80C32.7386 80 30.5 82.2386 30.5 85C30.5 87.7614 32.7386 90 35.5 90C38.2614 90 40.5 87.7614 40.5 85C40.5 82.2386 38.2614 80 35.5 80ZM25.5 85C25.5 79.4772 29.9772 75 35.5 75C41.0228 75 45.5 79.4772 45.5 85C45.5 90.5228 41.0228 95 35.5 95C29.9772 95 25.5 90.5228 25.5 85Z" fill="#FF7F37"/>
<path fill-rule="evenodd" clip-rule="evenodd" d="M82.9982 40C84.3789 40 85.4982 41.1193 85.4982 42.5V52.5C85.4982 53.8807 84.3789 55 82.9982 55H75.4982V62.5C75.4982 63.163 75.2348 63.7989 74.766 64.2678L63.716 75.3178C62.7397 76.2941 61.1568 76.2941 60.1805 75.3178C59.2042 74.3415 59.2042 72.7585 60.1805 71.7822L70.4982 61.4645V52.5C70.4982 51.1193 71.6175 50 72.9982 50H80.4982V42.5C80.4982 41.1193 81.6175 40 82.9982 40Z" fill="#F5B6CD"/>
<path fill-rule="evenodd" clip-rule="evenodd" d="M61.2218 71.1613C62.5424 70.7583 63.9396 71.5021 64.3427 72.8227C65.6586 77.1343 65.7798 81.7222 64.6933 86.0974C63.6069 90.4725 61.3536 94.4707 58.1735 97.666L58.1722 97.6673C55.8543 99.9927 53.1003 101.838 50.068 103.096C47.0357 104.355 43.7848 105.003 40.5016 105.003C37.2183 105.003 33.9674 104.355 30.9351 103.096C27.9028 101.838 25.1488 99.9927 22.831 97.6673C21.8562 96.6895 21.8588 95.1066 22.8366 94.1318C23.8145 93.1571 25.3974 93.1596 26.3722 94.1375C28.2255 95.9968 30.4276 97.472 32.8522 98.4786C35.2769 99.4852 37.8763 100.003 40.5016 100.003C43.1268 100.003 45.7263 99.4852 48.1509 98.4786C50.5749 97.4723 52.7765 95.9975 54.6296 94.1389C57.1713 91.585 58.9723 88.3893 59.8407 84.8923C60.7091 81.3954 60.6122 77.7284 59.5604 74.2822C59.1574 72.9616 59.9012 71.5643 61.2218 71.1613Z" fill="#FDDA24"/>
<path fill-rule="evenodd" clip-rule="evenodd" d="M22.831 62.3346C29.5806 55.5331 39.2056 53.6126 47.7165 56.1548C49.0394 56.55 49.7915 57.9428 49.3964 59.2657C49.0012 60.5887 47.6084 61.3408 46.2854 60.9456C39.3984 58.8885 31.7261 60.4664 26.376 65.8607L26.3659 65.8708L26.3659 65.8708C24.5066 67.7242 23.0313 69.9263 22.0247 72.3509C21.0181 74.7755 20.5 77.3749 20.5 80.0002C20.5 82.6255 21.0181 85.2249 22.0247 87.6495C23.0313 90.0741 24.5066 92.2762 26.3659 94.1296C27.3438 95.1043 27.3463 96.6873 26.3715 97.6651C25.3968 98.643 23.8139 98.6455 22.836 97.6708C20.5107 95.3529 18.6657 92.5989 17.4069 89.5666C16.148 86.5344 15.5 83.2834 15.5 80.0002C15.5 76.717 16.148 73.466 17.4069 70.4338C18.6648 67.4037 20.508 64.6515 22.831 62.3346Z" fill="#00CCEA"/>
<path fill-rule="evenodd" clip-rule="evenodd" d="M90.0294 15.9939C91.0003 16.9756 90.9917 18.5584 90.01 19.5294L48.76 60.3294C47.7783 61.3003 46.1955 61.2916 45.2245 60.31C44.2536 59.3283 44.2623 57.7455 45.2439 56.7745L86.4939 15.9745C87.4756 15.0036 89.0584 15.0123 90.0294 15.9939Z" fill="#9063CD"/>
<path fill-rule="evenodd" clip-rule="evenodd" d="M85.75 17.752C85.75 16.3712 86.8693 15.252 88.25 15.252H103C104.381 15.252 105.5 16.3712 105.5 17.752V32.502C105.5 33.8827 104.381 35.002 103 35.002H95.5V42.5019C95.5 43.8827 94.3807 45.0019 93 45.0019H83C81.6193 45.0019 80.5 43.8827 80.5 42.5019C80.5 41.1212 81.6193 40.0019 83 40.0019H90.5V32.502C90.5 31.1212 91.6193 30.002 93 30.002H100.5V20.252H88.25C86.8693 20.252 85.75 19.1327 85.75 17.752Z" fill="#00C389"/>
</svg>
