<svg width="48" height="48" viewBox="0 0 48 48" fill="none" xmlns="http://www.w3.org/2000/svg">
	<path d="M16,7C16,6.448 16.448,6 17,6H33C33.552,6 34,6.448 34,7V25C34,25.552 33.552,26 33,26C32.448,26 32,25.552 32,25V8H17C16.448,8 16,7.552 16,7Z" fill="#F5B6CD" fill-rule="evenOdd"/>
	<path d="M17.707,6.293C18.098,6.683 18.098,7.317 17.707,7.707L10,15.414V39C10,39.552 9.552,40 9,40C8.448,40 8,39.552 8,39V15C8,14.735 8.105,14.48 8.293,14.293L16.293,6.293C16.683,5.902 17.317,5.902 17.707,6.293Z" fill="#00C389" fill-rule="evenOdd"/>
	<path d="M8,39C8,38.448 8.448,38 9,38H25C25.552,38 26,38.448 26,39C26,39.552 25.552,40 25,40H9C8.448,40 8,39.552 8,39Z" fill="#FDDA24" fill-rule="evenOdd"/>
	<path d="M17,6C17.552,6 18,6.448 18,7V15C18,15.552 17.552,16 17,16H9C8.448,16 8,15.552 8,15C8,14.448 8.448,14 9,14H16V7C16,6.448 16.448,6 17,6Z" fill="#00CCEA" fill-rule="evenOdd"/>
	<path d="M31,26C27.134,26 24,29.134 24,33C24,36.866 27.134,40 31,40C34.866,40 38,36.866 38,33C38,29.134 34.866,26 31,26ZM22,33C22,28.029 26.029,24 31,24C35.971,24 40,28.029 40,33C40,37.971 35.971,42 31,42C26.029,42 22,37.971 22,33Z" fill="#FF7F37" fill-rule="evenOdd"/>
	<path d="M31,29V37" stroke-width="1" stroke="#9063CD" strokeLineCap="round" fill="#00000000"/>
	<path d="M33,31C33,29.895 32.105,29 31,29C29.895,29 29,29.895 29,31C29,32.105 30,32.5 31,33C32,33.5 33,33.895 33,35C33,36.105 32.105,37 31,37C29.895,37 29,36.105 29,35" stroke-width="1" stroke="#9063CD" strokeLineCap="round" fill="#00000000" strokeLineJoin="round"/>
</svg>
